<svg xmlns="http://www.w3.org/2000/svg" viewBox="0 0 96 96" role="img" aria-label="Raihan Com">
  <defs>
    <linearGradient id="g" x1="12" y1="10" x2="82" y2="86" gradientUnits="userSpaceOnUse">
      <stop stop-color="#1D2933"/>
      <stop offset="1" stop-color="#0E1217"/>
    </linearGradient>
  </defs>
  <rect x="4" y="4" width="88" height="88" rx="28" fill="url(#g)"/>
  <rect x="5" y="5" width="86" height="86" rx="27" stroke="#F0D28A" stroke-opacity=".18" stroke-width="2"/>
  <path d="M24 66V26h27c10 0 17 6 17 15 0 6-3 11-9 13l14 12H56L44 56h-8v10H24Zm12-21h15c4 0 6-2 6-5s-2-5-6-5H36v10Z" fill="#F0D28A"/>
  <path d="M70 30h6v36h-6z" fill="#C59A43"/>
  <path d="M20 74h56" stroke="#F0D28A" stroke-opacity=".35" stroke-width="3" stroke-linecap="round"/>
</svg>
